HIERARCHY
ROOT root
{
	OFFSET 0.000000 0.000000 0.000000
	CHANNELS 6 Xposition Yposition Zposition Zrotation Yrotation Xrotation
	JOINT lhip
	{
		OFFSET 0.058581 -0.082280 -0.017664
		CHANNELS 3 Zrotation Yrotation Xrotation
		JOINT lknee
		{
			OFFSET 0.043451 -0.386469 0.008037
			CHANNELS 3 Zrotation Yrotation Xrotation
			JOINT lankle
			{
				OFFSET -0.014790 -0.426874 -0.037428
				CHANNELS 3 Zrotation Yrotation Xrotation
				JOINT ltoe
				{
					OFFSET 0.041054 -0.060286 0.122042
					CHANNELS 3 Zrotation Yrotation Xrotation
					End Site
					{
						OFFSET 0.000000 0.000000 0.000000
					}
				}
			}
		}
	}
	JOINT rhip
	{
		OFFSET -0.060310 -0.090513 -0.013543
		CHANNELS 3 Zrotation Yrotation Xrotation
		JOINT rknee
		{
			OFFSET -0.043257 -0.383688 -0.004843
			CHANNELS 3 Zrotation Yrotation Xrotation
			JOINT rankle
			{
				OFFSET 0.019056 -0.420046 -0.034562
				CHANNELS 3 Zrotation Yrotation Xrotation
				JOINT rtoe
				{
					OFFSET -0.034840 -0.062106 0.130323
					CHANNELS 3 Zrotation Yrotation Xrotation
					End Site
					{
						OFFSET 0.000000 0.000000 0.000000
					}
				}
			}
		}
	}
	JOINT lowerback
	{
		OFFSET 0.004439 0.124404 -0.038385
		CHANNELS 3 Zrotation Yrotation Xrotation
		JOINT upperback
		{
			OFFSET 0.004488 0.137956 0.026820
			CHANNELS 3 Zrotation Yrotation Xrotation
			JOINT chest
			{
				OFFSET -0.002265 0.056032 0.002855
				CHANNELS 3 Zrotation Yrotation Xrotation
				JOINT lowerneck
				{
					OFFSET -0.013390 0.211636 -0.033468
					CHANNELS 3 Zrotation Yrotation Xrotation
					JOINT upperneck
					{
						OFFSET 0.010113 0.088937 0.050410
						CHANNELS 3 Zrotation Yrotation Xrotation
						End Site
						{
							OFFSET 0.000000 0.000000 0.000000
						}
					}
				}
				JOINT lclavicle
				{
					OFFSET 0.071702 0.114000 -0.018898
					CHANNELS 3 Zrotation Yrotation Xrotation
					JOINT lshoulder
					{
						OFFSET 0.122921 0.045205 -0.019046
						CHANNELS 3 Zrotation Yrotation Xrotation
						JOINT lelbow
						{
							OFFSET 0.255332 -0.015649 -0.022946
							CHANNELS 3 Zrotation Yrotation Xrotation
							JOINT lwrist
							{
								OFFSET 0.265709 0.012698 -0.007375
								CHANNELS 3 Zrotation Yrotation Xrotation
								End Site
								{
									OFFSET 0.000000 0.000000 0.000000
								}
							}
						}
					}
				}
				JOINT rclavicle
				{
					OFFSET -0.082954 0.112472 -0.023707
					CHANNELS 3 Zrotation Yrotation Xrotation
					JOINT rshoulder
					{
						OFFSET -0.113228 0.046853 -0.008472
						CHANNELS 3 Zrotation Yrotation Xrotation
						JOINT relbow
						{
							OFFSET -0.260127 -0.014369 -0.031269
							CHANNELS 3 Zrotation Yrotation Xrotation
							JOINT rwrist
							{
								OFFSET -0.269108 0.006794 -0.006027
								CHANNELS 3 Zrotation Yrotation Xrotation
								End Site
								{
									OFFSET 0.000000 0.000000 0.000000
								}
							}
						}
					}
				}
			}
		}
	}
}
MOTION
Frames: 11
Frame Time: 0.033333
0.016667 0.728723 0.987692 -1.426222 -1.975684 84.743542 -3.871390 -3.312932 -11.018018 -3.631784 -1.647996 18.160545 8.295604 13.131252 -9.793666 0.000000 -0.000000 0.000000 -1.859936 -3.756449 -3.015304 -2.498577 -5.920866 49.212016 1.951730 -12.804893 -5.161513 0.000000 -0.000000 0.000000 -1.161655 3.466551 16.583271 -0.175920 2.745830 -3.903590 -0.169254 0.999624 5.492176 0.466781 6.068939 6.110324 -4.871183 5.700854 15.471766 -26.896280 15.274721 -1.638063 -56.362809 -3.124278 0.608630 20.639581 -24.338703 -9.163278 -3.693867 -0.451194 -14.761338 27.205233 -3.850139 -0.823370 55.025176 8.595490 15.272641 -17.608665 29.277638 -13.043716 2.961246 2.456125 -8.114574 
0.019968 0.715828 0.990855 0.965283 -1.530399 84.010033 -4.171285 -3.640445 -9.122762 -3.910708 -3.762657 17.571659 8.889518 13.627187 -9.892384 0.000000 -0.000000 0.000000 -2.283994 -2.902355 -8.731126 -1.812942 -7.012860 59.163930 0.880255 -12.926318 -1.243372 0.000000 -0.000000 0.000000 -1.501211 1.986512 18.042285 0.025255 2.656863 -4.291692 -0.441357 0.237907 5.496266 0.731345 6.019924 6.612424 -5.234453 5.555880 15.609664 -26.806800 15.318340 -1.391148 -56.330448 -3.435643 1.092646 20.669453 -25.364626 -8.585535 -4.078116 -0.695889 -15.044659 27.677522 -4.435062 -1.108922 54.898247 8.216236 15.442700 -17.591096 28.939078 -13.458636 3.167151 2.263969 -8.437669 
0.023222 0.702816 0.994709 2.500576 -0.722347 83.159038 -4.366089 -3.152562 -6.969974 -3.452191 -6.305549 16.994507 9.146763 14.161653 -10.308479 0.000000 -0.000000 0.000000 -2.341572 -2.252610 -14.686725 -1.174676 -7.788496 68.445495 0.657733 -12.254444 -7.435672 0.000000 -0.000000 0.000000 -1.180242 0.649319 19.439592 0.281089 2.872070 -4.594918 -0.949532 -0.177317 5.730365 1.316855 7.043745 6.995426 -5.969156 4.808359 16.117634 -27.040887 14.880054 -1.569606 -55.847719 -3.743959 1.545920 20.792891 -26.184566 -8.856654 -3.845287 -0.450265 -14.203183 28.490585 -4.625081 -1.361637 54.287616 7.600303 14.924066 -17.968577 28.760064 -14.048915 3.531952 2.189089 -8.090186 
0.027126 0.688593 0.998663 2.943242 0.347276 81.831647 -4.128991 -1.480269 -4.018936 -2.898359 -8.948469 15.757588 9.111638 14.717614 -10.528858 0.000000 -0.000000 0.000000 -2.130600 -1.559339 -20.883627 -0.563688 -8.208480 77.155318 1.091552 -10.866916 -11.956604 0.000000 -0.000000 0.000000 -0.412383 -0.994005 20.963057 0.356945 3.834360 -4.324652 -1.419103 -0.105076 5.896610 1.733508 7.559470 7.228972 -6.782315 4.212180 16.650177 -27.244736 14.506580 -2.070676 -55.683568 -4.127277 1.782217 21.133765 -27.046344 -9.314495 -3.555812 -0.350320 -13.056787 28.480725 -4.615971 -1.494749 54.075262 7.190439 14.372794 -17.903835 28.460486 -14.323434 4.061361 2.207286 -7.719193 
0.029142 0.676051 1.003572 4.004805 1.465932 80.436463 -3.293925 -0.590139 -1.114888 -2.868881 -11.380223 14.732868 8.743627 15.212900 -10.917185 0.000000 -0.000000 0.000000 -2.388404 -0.330691 -26.946508 0.106044 -10.468928 84.556894 1.079234 -9.381200 -16.883545 0.000000 -0.000000 0.000000 -0.084242 -2.713812 22.865304 0.530031 4.417976 -4.029307 -1.622343 -0.232698 5.877798 2.234437 8.748880 7.727209 -7.076145 3.462493 16.836512 -26.996364 14.136457 -2.296393 -55.581026 -4.466613 2.093665 21.822975 -28.530311 -10.225687 -2.909637 -0.296355 -12.627296 28.745842 -4.334586 -1.478161 53.735050 6.887369 13.773949 -17.788500 28.173063 -14.339209 3.924363 1.894843 -7.471465 
0.031467 0.664237 1.007840 5.438350 2.336227 79.109766 -2.678060 0.224958 1.605682 -2.725021 -13.618605 13.870538 8.432088 15.239165 -11.408288 0.000000 -0.000000 0.000000 -3.416418 0.022263 -32.832803 0.034510 -12.842197 90.341163 1.544888 -7.893068 -20.387689 0.000000 -0.000000 0.000000 0.009166 -4.462760 24.690490 0.827402 4.581685 -3.660017 -1.609554 -0.545017 5.889598 2.504154 9.302523 8.084013 -7.850907 2.782323 17.269357 -26.905767 13.767847 -1.986806 -55.185046 -5.010113 2.132219 22.580292 -30.339112 -11.424019 -3.052488 -0.541205 -12.292043 28.555016 -4.202675 -1.548980 53.545728 6.961565 13.347529 -17.583942 28.089376 -14.032315 4.635408 2.088927 -6.402196 
0.030571 0.653374 1.010597 6.802524 3.636682 78.464092 -0.785214 1.086728 3.236885 -3.385879 -15.360738 13.509558 8.193837 14.762791 -12.050139 0.000000 -0.000000 0.000000 -3.863871 0.320645 -38.990686 0.079434 -15.300483 93.851836 1.439688 -6.738654 -23.029554 0.000000 -0.000000 0.000000 0.162544 -5.931668 25.878130 1.259364 4.834353 -3.492228 -1.588576 -0.986087 6.052637 2.994786 10.134870 8.414567 -8.017350 2.230497 18.109910 -26.364617 13.768770 -1.701392 -54.779506 -5.662348 2.240900 23.532627 -32.278145 -12.261536 -2.479181 -0.767707 -11.757088 28.812453 -4.387749 -1.685814 53.431429 7.035620 12.925704 -17.475140 28.390902 -13.602486 5.105331 2.164738 -5.800451 
0.030649 0.642347 1.013706 8.214540 4.576758 77.565439 0.533848 1.984409 5.348539 -3.593373 -17.279648 12.837862 7.701867 14.226079 -12.568562 0.000000 -0.000000 0.000000 -4.257856 -0.561382 -43.632204 0.743475 -16.547283 94.657498 1.416762 -5.460142 -24.962953 0.000000 -0.000000 0.000000 0.277890 -6.892142 27.246849 1.517798 4.829797 -3.192959 -1.508486 -1.459469 6.176466 3.506777 10.896033 9.092677 -8.131265 1.921584 18.728606 -25.841107 13.785720 -1.728827 -54.220059 -6.298957 2.305000 24.240249 -34.101980 -12.771159 -1.773608 -0.968722 -11.136995 29.215430 -4.636344 -1.840329 53.104584 7.015348 12.404272 -17.321901 28.882796 -13.685774 5.073309 2.163974 -5.357146 
0.030317 0.631503 1.015947 9.245443 5.397484 77.062075 1.738323 2.724180 6.896925 -3.599843 -18.589145 12.328687 7.337754 13.835768 -13.114837 0.000000 -0.000000 0.000000 -4.581986 -1.270630 -47.548804 0.989246 -17.425954 93.280243 1.525717 -4.852285 -25.780441 0.000000 -0.000000 0.000000 0.322542 -7.538344 28.073852 1.660700 5.015998 -2.885059 -1.416459 -1.757922 6.253630 3.984990 11.190023 9.991521 -7.932143 1.624809 19.153097 -25.312630 14.006615 -1.610961 -53.638928 -7.055289 2.170077 25.258825 -35.809386 -13.866609 -0.957979 -1.104547 -10.760882 29.613810 -4.767602 -1.641642 52.850598 6.931470 12.005952 -17.360462 29.119897 -14.045179 4.995852 2.314384 -4.944839 
0.030675 0.620542 1.017618 10.021641 5.990015 76.729717 2.843730 3.162537 8.122554 -3.976911 -19.403515 12.085639 6.907603 13.366246 -13.596796 0.000000 -0.000000 0.000000 -5.143294 -1.550959 -50.160806 1.261647 -18.217353 90.196142 2.373575 -4.436997 -25.051967 0.000000 -0.000000 0.000000 0.250481 -8.114852 28.685904 1.728112 5.168329 -2.574472 -1.294478 -1.727934 6.342497 4.181116 11.311608 10.690849 -7.667392 1.428022 19.471664 -24.976171 14.374661 -1.455638 -53.066052 -7.713759 1.990359 26.424534 -37.583079 -15.006816 -0.050082 -1.386882 -11.153110 29.759494 -4.992481 -1.380178 52.806873 6.904449 11.967852 -17.398738 29.051092 -13.744330 3.920128 2.173216 -4.433008 
0.030428 0.610085 1.018607 10.610630 6.447468 76.630875 3.711065 3.231484 9.131240 -3.982829 -19.876989 11.640608 6.633034 13.113559 -14.123282 0.000000 -0.000000 0.000000 -5.591159 -1.488365 -51.577354 1.275773 -18.812919 86.269875 2.559960 -4.751655 -23.246822 0.000000 -0.000000 0.000000 0.108688 -8.514597 29.105994 1.676843 5.372566 -2.345781 -1.168011 -1.720393 6.449614 4.223105 11.343213 11.193885 -7.380300 1.628488 19.668977 -24.681390 14.831429 -1.262968 -52.346797 -8.308644 1.868270 27.497548 -39.143051 -16.395129 0.459875 -1.598702 -11.852456 29.897017 -5.237552 -1.354021 52.719905 7.089464 11.991616 -17.110883 28.732809 -14.066698 4.048555 1.980358 -4.586976 
